<svg width="20" height="20" viewBox="0 0 20 20" fill="none" xmlns="http://www.w3.org/2000/svg">
<path d="M9.29395 9.85873H10.7064" stroke="#0D6EFD" stroke-miterlimit="10" stroke-linecap="round" stroke-linejoin="round"/>
<path d="M13.5312 9.85873H14.9437" stroke="#0D6EFD" stroke-miterlimit="10" stroke-linecap="round" stroke-linejoin="round"/>
<path d="M5.05664 12.6836H6.46907" stroke="#0D6EFD" stroke-miterlimit="10" stroke-linecap="round" stroke-linejoin="round"/>
<path d="M9.29395 12.6836H10.7064" stroke="#0D6EFD" stroke-miterlimit="10" stroke-linecap="round" stroke-linejoin="round"/>
<path d="M13.5312 12.6836H14.9437" stroke="#0D6EFD" stroke-miterlimit="10" stroke-linecap="round" stroke-linejoin="round"/>
<path d="M5.05664 15.5085H6.46907" stroke="#0D6EFD" stroke-miterlimit="10" stroke-linecap="round" stroke-linejoin="round"/>
<path d="M9.29395 15.5085H10.7064" stroke="#0D6EFD" stroke-miterlimit="10" stroke-linecap="round" stroke-linejoin="round"/>
<path d="M12.8249 4.49152H16.2148C17.3849 4.49152 18.3334 5.44007 18.3334 6.61016V16.2147C18.3334 17.3848 17.3849 18.3333 16.2148 18.3333H3.78539C2.6153 18.3333 1.66675 17.3848 1.66675 16.2147V6.61016C1.66675 5.44007 2.6153 4.49152 3.78539 4.49152H10.0001" stroke="#0D6EFD" stroke-miterlimit="10" stroke-linecap="round" stroke-linejoin="round"/>
<path d="M5.76277 7.31637C4.98272 7.31637 4.35034 6.68399 4.35034 5.90395V3.07909C4.35034 2.29904 4.98272 1.66666 5.76277 1.66666C6.54282 1.66666 7.1752 2.29904 7.1752 3.07909V4.49152" stroke="#0D6EFD" stroke-miterlimit="10" stroke-linecap="round" stroke-linejoin="round"/>
<path d="M14.2374 7.31637C13.4573 7.31637 12.825 6.68399 12.825 5.90395V3.07909C12.825 2.29904 13.4573 1.66666 14.2374 1.66666C15.0174 1.66666 15.6498 2.29904 15.6498 3.07909V4.49152" stroke="#0D6EFD" stroke-miterlimit="10" stroke-linecap="round" stroke-linejoin="round"/>
</svg>
