<svg width="24" height="24" viewBox="0 0 24 24" fill="none" xmlns="http://www.w3.org/2000/svg">
<path d="M13.25 19H3.25C2.5 19 2 18.5 2 17.75C2 17 2.5 16.5 3.25 16.5H13.25C14 16.5 14.5 17 14.5 17.75C14.5 18.5 14 19 13.25 19Z" fill="black"/>
<path d="M20.75 12.75H3.25C2.5 12.75 2 12.25 2 11.5C2 10.75 2.5 10.25 3.25 10.25H20.75C21.5 10.25 22 10.75 22 11.5C22 12.25 21.5 12.75 20.75 12.75Z" fill="black"/>
<path d="M20.75 6.5H10.75C10 6.5 9.5 6 9.5 5.25C9.5 4.5 10 4 10.75 4H20.75C21.5 4 22 4.5 22 5.25C22 6 21.5 6.5 20.75 6.5Z" fill="black"/>
</svg>
