<svg width="24" height="24" viewBox="0 0 24 24" fill="none" xmlns="http://www.w3.org/2000/svg">
<path d="M21.94 2.76L21.23 2.05C20.16 0.979998 18.41 0.979998 17.34 2.05L7.03 12.38C6.74 12.67 6.56 13.05 6.52 13.46L6.25 16.39C6.22 16.76 6.35 17.12 6.61 17.39C6.85 17.63 7.16 17.76 7.49 17.76H7.6L10.53 17.49C10.94 17.45 11.32 17.27 11.61 16.98L21.93 6.66C22.45 6.14 22.74 5.45 22.74 4.72C22.74 3.99 22.45 3.29 21.93 2.78L21.94 2.76ZM10.56 15.91C10.56 15.91 10.46 15.98 10.41 15.98L7.78 16.22L8.02 13.59C8.02 13.53 8.05 13.48 8.09 13.43L16.47 5.05L18.94 7.52L10.56 15.9V15.91ZM20.88 5.59L20 6.47L17.53 4L18.41 3.12C18.65 2.88 18.97 2.75 19.29 2.75C19.61 2.75 19.93 2.87 20.17 3.12L20.88 3.83C21.12 4.07 21.25 4.38 21.25 4.71C21.25 5.04 21.12 5.36 20.88 5.59ZM20.75 13.19V19C20.75 21.07 19.07 22.75 17 22.75H5C2.93 22.75 1.25 21.07 1.25 19V7C1.25 4.93 2.93 3.25 5 3.25H10.81C11.22 3.25 11.56 3.59 11.56 4C11.56 4.41 11.22 4.75 10.81 4.75H5C3.76 4.75 2.75 5.76 2.75 7V19C2.75 20.24 3.76 21.25 5 21.25H17C18.24 21.25 19.25 20.24 19.25 19V13.19C19.25 12.78 19.59 12.44 20 12.44C20.41 12.44 20.75 12.78 20.75 13.19Z" fill="#0D6EFD"/>
</svg>
