<svg width="20" height="20" viewBox="0 0 20 20" fill="none" xmlns="http://www.w3.org/2000/svg">
<path d="M9.99943 18.3333L9.55674 17.8504C9.41249 17.693 6.01153 13.9807 5.20454 13.0518C4.46893 12.2052 3.81133 11.0337 3.56846 10.1367C3.41243 9.56443 3.33331 8.96925 3.33331 8.36888C3.33331 4.67888 6.32359 1.67221 9.99906 1.66666C13.6764 1.67221 16.6666 4.67851 16.6666 8.36888C16.6666 8.96925 16.5875 9.56443 16.4311 10.1374C16.1883 11.0337 15.5307 12.2052 14.7951 13.0518C13.9877 13.9811 10.5871 17.693 10.4429 17.8504L9.99943 18.3333ZM9.99869 2.87888C6.98818 2.88332 4.53737 5.34592 4.53737 8.36888C4.53737 8.86073 4.60214 9.34777 4.72983 9.81666C4.92634 10.5422 5.49451 11.5441 6.11089 12.2541C6.7453 12.9844 9.02463 15.4796 9.99906 16.5452C10.9739 15.4796 13.2528 12.9844 13.8872 12.2541C14.504 11.5444 15.0718 10.5422 15.2683 9.81777C15.3963 9.34814 15.4611 8.8611 15.4611 8.36925C15.4615 5.34592 13.0107 2.88332 9.99869 2.87888Z" fill="#0D6EFD"/>
<path d="M9.99943 11.697C8.12012 11.697 6.59149 10.1618 6.59149 8.27443C6.59149 6.38702 8.12048 4.85184 9.99943 4.85184C11.8784 4.85184 13.4074 6.38702 13.4074 8.27443C13.4074 10.1618 11.8788 11.697 9.99943 11.697ZM9.99943 6.06443C8.78434 6.06443 7.79592 7.05591 7.79592 8.2748C7.79592 9.49369 8.78434 10.4852 9.99943 10.4852C11.2145 10.4852 12.203 9.49369 12.203 8.2748C12.203 7.05591 11.2145 6.06443 9.99943 6.06443Z" fill="#0D6EFD"/>
</svg>
